<svg viewBox="0 0 700 400" xmlns="http://www.w3.org/2000/svg"
     style="font-family:-apple-system,system-ui,sans-serif;background:white;">
  <text x="350" y="22" text-anchor="middle" font-size="13" font-weight="600" fill="#222">
    HLA Allele Discovery Is Ongoing — The Reference Is Always Growing
  </text>
  <text x="350" y="40" text-anchor="middle" font-size="10" fill="#666">
    Total alleles in IPD-IMGT/HLA database by year · source: Robinson et al. 2024, HLA
  </text>
  <text x="350" y="56" text-anchor="middle" font-size="10" fill="#666">
    Point-in-time assemblies become outdated; haplotype-informed scaffolding is more robust than direct reference mapping
  </text>
  <line x1="70" y1="70" x2="70" y2="340" stroke="#ccc" stroke-width="1"/><line x1="70" y1="340" x2="660" y2="340" stroke="#ccc" stroke-width="1"/><line x1="115.4" y1="340" x2="115.4" y2="345" stroke="#999" stroke-width="1"/><text x="115.4" y="358" text-anchor="middle" font-size="9" fill="#666">2000</text><line x1="206.2" y1="340" x2="206.2" y2="345" stroke="#999" stroke-width="1"/><text x="206.2" y="358" text-anchor="middle" font-size="9" fill="#666">2004</text><line x1="296.9" y1="340" x2="296.9" y2="345" stroke="#999" stroke-width="1"/><text x="296.9" y="358" text-anchor="middle" font-size="9" fill="#666">2008</text><line x1="387.7" y1="340" x2="387.7" y2="345" stroke="#999" stroke-width="1"/><text x="387.7" y="358" text-anchor="middle" font-size="9" fill="#666">2012</text><line x1="478.5" y1="340" x2="478.5" y2="345" stroke="#999" stroke-width="1"/><text x="478.5" y="358" text-anchor="middle" font-size="9" fill="#666">2016</text><line x1="569.2" y1="340" x2="569.2" y2="345" stroke="#999" stroke-width="1"/><text x="569.2" y="358" text-anchor="middle" font-size="9" fill="#666">2020</text><line x1="660.0" y1="340" x2="660.0" y2="345" stroke="#999" stroke-width="1"/><text x="660.0" y="358" text-anchor="middle" font-size="9" fill="#666">2024</text><line x1="65" y1="340.0" x2="70" y2="340.0" stroke="#999" stroke-width="1"/><text x="62" y="344.0" text-anchor="end" font-size="9" fill="#666">0k</text><line x1="65" y1="281.9" x2="70" y2="281.9" stroke="#999" stroke-width="1"/><text x="62" y="285.9" text-anchor="end" font-size="9" fill="#666">10k</text><line x1="65" y1="223.7" x2="70" y2="223.7" stroke="#999" stroke-width="1"/><text x="62" y="227.7" text-anchor="end" font-size="9" fill="#666">20k</text><line x1="65" y1="165.6" x2="70" y2="165.6" stroke="#999" stroke-width="1"/><text x="62" y="169.6" text-anchor="end" font-size="9" fill="#666">30k</text><line x1="65" y1="107.4" x2="70" y2="107.4" stroke="#999" stroke-width="1"/><text x="62" y="111.4" text-anchor="end" font-size="9" fill="#666">40k</text><polygon points="70.0,340.0 70.0,334.5 115.4,332.6 160.8,330.7 206.2,327.8 251.5,319.3 296.9,310.9 342.3,301.2 387.7,283.1 433.1,258.4 478.5,233.0 523.8,206.4 569.2,171.1 614.6,130.5 637.3,109.2 660.0,90.0 660.0,340.0" fill="#1a5c8a" opacity="0.12"/><polyline points="70.0,334.5 115.4,332.6 160.8,330.7 206.2,327.8 251.5,319.3 296.9,310.9 342.3,301.2 387.7,283.1 433.1,258.4 478.5,233.0 523.8,206.4 569.2,171.1 614.6,130.5 637.3,109.2 660.0,90.0" fill="none" stroke="#1a5c8a" stroke-width="2.5" stroke-linejoin="round"/><circle cx="70.0" cy="334.5" r="4" fill="#1a5c8a" stroke="white" stroke-width="1.5"/><circle cx="115.4" cy="332.6" r="4" fill="#1a5c8a" stroke="white" stroke-width="1.5"/><circle cx="160.8" cy="330.7" r="4" fill="#1a5c8a" stroke="white" stroke-width="1.5"/><circle cx="206.2" cy="327.8" r="4" fill="#1a5c8a" stroke="white" stroke-width="1.5"/><circle cx="251.5" cy="319.3" r="4" fill="#1a5c8a" stroke="white" stroke-width="1.5"/><circle cx="296.9" cy="310.9" r="4" fill="#1a5c8a" stroke="white" stroke-width="1.5"/><circle cx="342.3" cy="301.2" r="4" fill="#1a5c8a" stroke="white" stroke-width="1.5"/><circle cx="387.7" cy="283.1" r="4" fill="#1a5c8a" stroke="white" stroke-width="1.5"/><circle cx="433.1" cy="258.4" r="4" fill="#1a5c8a" stroke="white" stroke-width="1.5"/><circle cx="478.5" cy="233.0" r="4" fill="#1a5c8a" stroke="white" stroke-width="1.5"/><circle cx="523.8" cy="206.4" r="4" fill="#1a5c8a" stroke="white" stroke-width="1.5"/><circle cx="569.2" cy="171.1" r="4" fill="#1a5c8a" stroke="white" stroke-width="1.5"/><circle cx="614.6" cy="130.5" r="4" fill="#1a5c8a" stroke="white" stroke-width="1.5"/><circle cx="637.3" cy="109.2" r="4" fill="#1a5c8a" stroke="white" stroke-width="1.5"/><circle cx="660.0" cy="90.0" r="4" fill="#1a5c8a" stroke="white" stroke-width="1.5"/><line x1="660.0" y1="82.0" x2="660.0" y2="50.0" stroke="#c0392b" stroke-width="1" stroke-dasharray="3,2"/><rect x="572.0" y="18.0" width="176" height="32" rx="3" fill="#fff5f5" stroke="#c0392b" stroke-width="1"/><text x="660.0" y="35.0" text-anchor="middle" font-size="9" fill="#c0392b" font-weight="600">MHConstructor published</text><text x="660.0" y="47.0" text-anchor="middle" font-size="9" fill="#c0392b">Genome Biology, Oct 2024</text><text x="365" y="392" text-anchor="middle" font-size="10" fill="#555">Year</text><text transform="rotate(-90,18,205)" x="18" y="205" text-anchor="middle" font-size="10" fill="#555">Total known alleles</text>
</svg>