<svg viewBox="0 0 700 520" xmlns="http://www.w3.org/2000/svg"
     style="font-family:-apple-system,system-ui,sans-serif;background:white;">
  <text x="350" y="22" text-anchor="middle" font-size="13" font-weight="600" fill="#222">
    HLA Allele Diversity per Locus — IPD-IMGT/HLA Release 3.64.0
  </text>
  <text x="350" y="40" text-anchor="middle" font-size="10" fill="#666">
    46,005 total known alleles across all HLA loci (real data, July 2026)
  </text>
  <text x="350" y="56" text-anchor="middle" font-size="10" fill="#666">
    This is the polymorphism landscape that short-read MHC assemblers must navigate
  </text>
  <text x="380" y="488" text-anchor="middle"
        font-size="10" fill="#555">Number of known alleles</text>
  <line x1="90" y1="80" x2="90" y2="450" stroke="#ccc" stroke-width="1"/><line x1="90.0" y1="80" x2="90.0" y2="450" stroke="#eee" stroke-width="1"/><text x="90.0" y="468" text-anchor="middle" font-size="9" fill="#888">0</text><line x1="194.4" y1="80" x2="194.4" y2="450" stroke="#eee" stroke-width="1"/><text x="194.4" y="468" text-anchor="middle" font-size="9" fill="#888">2,000</text><line x1="298.8" y1="80" x2="298.8" y2="450" stroke="#eee" stroke-width="1"/><text x="298.8" y="468" text-anchor="middle" font-size="9" fill="#888">4,000</text><line x1="403.2" y1="80" x2="403.2" y2="450" stroke="#eee" stroke-width="1"/><text x="403.2" y="468" text-anchor="middle" font-size="9" fill="#888">6,000</text><line x1="507.6" y1="80" x2="507.6" y2="450" stroke="#eee" stroke-width="1"/><text x="507.6" y="468" text-anchor="middle" font-size="9" fill="#888">8,000</text><line x1="612.1" y1="80" x2="612.1" y2="450" stroke="#eee" stroke-width="1"/><text x="612.1" y="468" text-anchor="middle" font-size="9" fill="#888">10,000</text><rect x="90" y="80" width="580.0" height="19" fill="#a93226" rx="2" opacity="0.85"/><text x="82" y="93.5" text-anchor="end" font-size="11" fill="#333" font-weight="600">HLA-B</text><text x="676.0" y="93.5" font-size="10" fill="#a93226" font-weight="600">11,110</text><rect x="90" y="105" width="484.9" height="19" fill="#a93226" rx="2" opacity="0.85"/><text x="82" y="118.5" text-anchor="end" font-size="11" fill="#333" font-weight="600">HLA-C</text><text x="580.9" y="118.5" font-size="10" fill="#a93226" font-weight="600">9,288</text><rect x="90" y="130" width="479.0" height="19" fill="#a93226" rx="2" opacity="0.85"/><text x="82" y="143.5" text-anchor="end" font-size="11" fill="#333" font-weight="600">HLA-A</text><text x="575.0" y="143.5" font-size="10" fill="#a93226" font-weight="600">9,175</text><rect x="90" y="155" width="207.6" height="19" fill="#1a5c8a" rx="2" opacity="0.85"/><text x="82" y="168.5" text-anchor="end" font-size="11" fill="#333" font-weight="600">HLA-DRB1</text><text x="303.6" y="168.5" font-size="10" fill="#1a5c8a" font-weight="600">3,977</text><rect x="90" y="180" width="162.0" height="19" fill="#1a5c8a" rx="2" opacity="0.85"/><text x="82" y="193.5" text-anchor="end" font-size="11" fill="#333" font-weight="600">HLA-DPB1</text><text x="258.0" y="193.5" font-size="10" fill="#1a5c8a" font-weight="600">3,104</text><rect x="90" y="205" width="160.2" height="19" fill="#1a5c8a" rx="2" opacity="0.85"/><text x="82" y="218.5" text-anchor="end" font-size="11" fill="#333" font-weight="600">HLA-DQB1</text><text x="256.2" y="218.5" font-size="10" fill="#1a5c8a" font-weight="600">3,069</text><rect x="90" y="230" width="53.6" height="19" fill="#1a5c8a" rx="2" opacity="0.85"/><text x="82" y="243.5" text-anchor="end" font-size="11" fill="#333" font-weight="600">HLA-DQA1</text><text x="149.6" y="243.5" font-size="10" fill="#1a5c8a" font-weight="600">1,026</text><rect x="90" y="255" width="48.5" height="19" fill="#1a5c8a" rx="2" opacity="0.85"/><text x="82" y="268.5" text-anchor="end" font-size="11" fill="#333" font-weight="600">HLA-DPA1</text><text x="144.5" y="268.5" font-size="10" fill="#1a5c8a" font-weight="600">929</text><rect x="90" y="280" width="38.9" height="19" fill="#1a5c8a" rx="2" opacity="0.85"/><text x="82" y="293.5" text-anchor="end" font-size="11" fill="#333" font-weight="600">HLA-DRB3</text><text x="134.9" y="293.5" font-size="10" fill="#1a5c8a" font-weight="600">746</text><rect x="90" y="305" width="38.0" height="19" fill="#7f8c8d" rx="2" opacity="0.85"/><text x="82" y="318.5" text-anchor="end" font-size="11" fill="#333" font-weight="600">HLA-MICA</text><text x="134.0" y="318.5" font-size="10" fill="#7f8c8d" font-weight="600">727</text><rect x="90" y="330" width="20.3" height="19" fill="#a93226" rx="2" opacity="0.85"/><text x="82" y="343.5" text-anchor="end" font-size="11" fill="#333" font-weight="600">HLA-E</text><text x="116.3" y="343.5" font-size="10" fill="#a93226" font-weight="600">389</text><rect x="90" y="355" width="19.4" height="19" fill="#7f8c8d" rx="2" opacity="0.85"/><text x="82" y="368.5" text-anchor="end" font-size="11" fill="#333" font-weight="600">HLA-MICB</text><text x="115.4" y="368.5" font-size="10" fill="#7f8c8d" font-weight="600">372</text><rect x="90" y="380" width="18.3" height="19" fill="#1a5c8a" rx="2" opacity="0.85"/><text x="82" y="393.5" text-anchor="end" font-size="11" fill="#333" font-weight="600">HLA-DRB4</text><text x="114.3" y="393.5" font-size="10" fill="#1a5c8a" font-weight="600">350</text><rect x="90" y="405" width="10.6" height="19" fill="#a93226" rx="2" opacity="0.85"/><text x="82" y="418.5" text-anchor="end" font-size="11" fill="#333" font-weight="600">HLA-G</text><text x="106.6" y="418.5" font-size="10" fill="#a93226" font-weight="600">203</text><rect x="90" y="430" width="7.1" height="19" fill="#a93226" rx="2" opacity="0.85"/><text x="82" y="443.5" text-anchor="end" font-size="11" fill="#333" font-weight="600">HLA-F</text><text x="103.1" y="443.5" font-size="10" fill="#a93226" font-weight="600">136</text><rect x="392" y="84" width="12" height="12" fill="#a93226" rx="2" opacity="0.85"/><text x="409" y="94" font-size="10" fill="#444">HLA class I (classical)</text><rect x="392" y="102" width="12" height="12" fill="#1a5c8a" rx="2" opacity="0.85"/><text x="409" y="112" font-size="10" fill="#444">HLA class II (classical)</text><rect x="392" y="120" width="12" height="12" fill="#7f8c8d" rx="2" opacity="0.85"/><text x="409" y="130" font-size="10" fill="#444">Non-classical / MIC</text><rect x="668.0" y="78" width="4" height="23" rx="1" fill="#c0392b" opacity="0.6"/><text x="740.0" y="83.5" font-size="9" fill="#c0392b">HLA-B: most polymorphic locus</text><text x="740.0" y="95.5" font-size="9" fill="#c0392b">any two unrelated people share</text><text x="740.0" y="107.5" font-size="9" fill="#c0392b">on avg. only ~1 allele in 4</text>
</svg>